<?xml version="1.0" standalone="no"?><!DOCTYPE svg PUBLIC "-//W3C//DTD SVG 1.1//EN" "http://www.w3.org/Graphics/SVG/1.1/DTD/svg11.dtd"><svg t="1736084485533" class="icon" viewBox="0 0 1024 1024" version="1.1" xmlns="http://www.w3.org/2000/svg" p-id="803" xmlns:xlink="http://www.w3.org/1999/xlink" width="256" height="256"><path d="M512.008192 395.605333l56.797867-56.832L512.008192 281.975467l-56.797867 56.797866z" fill="#0854DF" p-id="804"></path><path d="M385.885525 754.653867a62.122667 62.122667 0 0 1-40.994133 17.5104c-1.194667 0.068267-2.389333 0.341333-3.584 0.341333-2.048 0-4.096-0.375467-6.144-0.580267-1.979733-0.170667-4.027733-0.170667-6.0416-0.546133-0.4096-0.068267-0.8192-0.273067-1.262933-0.341333a61.269333 61.269333 0 0 1-31.095467-16.384l-198.0416-198.0416a63.0784 63.0784 0 0 1 0-89.122134L296.763392 269.4144a62.498133 62.498133 0 0 1 44.544-18.466133c16.861867 0 32.6656 6.5536 44.578133 18.432l40.925867 40.96 28.398933 28.398933L512.008192 281.975467l-28.398933-28.398934-40.96-40.96a142.506667 142.506667 0 0 0-101.376-41.984 142.336 142.336 0 0 0-101.307734 41.984L41.923925 410.7264a143.530667 143.530667 0 0 0 0 202.717867l197.973334 198.0416A142.506667 142.506667 0 0 0 341.307392 853.435733a142.506667 142.506667 0 0 0 101.376-41.984l40.96-40.96-56.797867-56.763733-40.96 40.925867z" fill="#0854DF" p-id="805"></path><path d="M640.690859 410.692267l-43.485867-43.485867-28.398933-28.398933L512.008192 395.5712l28.398933 28.398933 43.485867 43.52c24.576 24.576 24.576 64.512 0 89.088l-43.485867 43.554134-28.398933 28.398933 56.763733 56.797867 28.398934-28.398934 43.52-43.52a143.530667 143.530667 0 0 0 0-202.752" fill="#0854DF" p-id="806"></path><path d="M982.092459 410.692267L784.050859 212.650667A142.336 142.336 0 0 0 682.674859 170.666667a142.4384 142.4384 0 0 0-101.376 41.984l-40.891734 40.96L597.204992 310.3744l40.96-40.96A62.464 62.464 0 0 1 682.674859 250.9824c16.827733 0 32.6656 6.485333 44.578133 18.432l197.973333 198.0416c24.576 24.576 24.576 64.512 0 89.088l-197.973333 198.075733c-11.0592 11.025067-25.941333 16.725333-40.994133 17.5104-1.2288 0.068267-2.389333 0.341333-3.584 0.341334-2.048 0-4.096-0.375467-6.144-0.546134-2.048-0.2048-4.096-0.2048-6.0416-0.580266-0.443733-0.068267-0.8192-0.273067-1.262934-0.341334a61.2352 61.2352 0 0 1-31.1296-16.384l-40.96-40.96-28.3648-28.3648L512.008192 742.126933l28.398933 28.398934L581.298859 811.451733A142.4384 142.4384 0 0 0 682.674859 853.435733a142.336 142.336 0 0 0 101.341866-41.984l198.0416-198.0416a143.530667 143.530667 0 0 0 0-202.752" fill="#13BBE8" p-id="807"></path><path d="M512.008192 628.5312l-28.398933-28.398933-43.52-43.52a63.146667 63.146667 0 0 1 0-89.122134l43.52-43.52 28.398933-28.398933-56.797867-56.763733-28.398933 28.398933-43.485867 43.485867a143.4624 143.4624 0 0 0 0 202.717866l43.485867 43.52 28.398933 28.398934L512.008192 742.126933l56.797867-56.797866L512.008192 628.5312z" fill="#13BBE8" p-id="808"></path></svg>